<svg width="140" height="47" viewBox="0 0 140 47" fill="none" xmlns="http://www.w3.org/2000/svg">
<path d="M5.60493 3.91667V46.5716H0V3.91667H5.60493Z" fill="white"/>
<path d="M31.6028 12.4232C35.709 12.4232 39.035 13.6675 41.5808 16.1562C44.1266 18.6042 45.3995 22.1536 45.3995 26.8047V46.5716H39.8562V27.6003C39.8562 24.2548 39.0144 21.7049 37.3309 19.9505C35.6474 18.1554 33.3479 17.2578 30.4325 17.2578C27.4761 17.2578 25.115 18.1758 23.3494 20.0117C21.6248 21.8477 20.7625 24.52 20.7625 28.0286V46.5716H15.1576V13.0352H20.7625V17.8086C21.8712 16.0951 23.3699 14.7691 25.2587 13.8307C27.1886 12.8924 29.3033 12.4232 31.6028 12.4232Z" fill="white"/>
<path d="M67.1201 41.431L77.5908 13.0352H83.5653L70.3229 46.5716H63.7941L50.5517 13.0352H56.5877L67.1201 41.431Z" fill="white"/>
<path d="M91.9756 7.58854C90.908 7.58854 90.0046 7.22135 89.2655 6.48698C88.5264 5.7526 88.1568 4.85503 88.1568 3.79427C88.1568 2.73351 88.5264 1.83594 89.2655 1.10156C90.0046 0.367188 90.908 0 91.9756 0C93.0021 0 93.8644 0.367188 94.5625 1.10156C95.3016 1.83594 95.6711 2.73351 95.6711 3.79427C95.6711 4.85503 95.3016 5.7526 94.5625 6.48698C93.8644 7.22135 93.0021 7.58854 91.9756 7.58854ZM94.6856 13.0352V46.5716H89.0807V13.0352H94.6856Z" fill="white"/>
<path d="M111.075 17.625V37.3919C111.075 39.0239 111.424 40.1866 112.122 40.8802C112.82 41.533 114.031 41.8594 115.756 41.8594H119.883V46.5716H114.832C111.712 46.5716 109.371 45.8576 107.811 44.4297C106.25 43.0017 105.47 40.6558 105.47 37.3919V17.625H101.097V13.0352H105.47V4.58984H111.075V13.0352H119.883V17.625H111.075Z" fill="white"/>
<path d="M113.269 3.91666V30.9049C113.269 34.6992 114.193 37.5143 116.04 39.3503C117.929 41.1862 120.537 42.1042 123.863 42.1042C127.148 42.1042 129.714 41.1862 131.562 39.3503C133.451 37.5143 134.395 34.6992 134.395 30.9049V3.91666H140V30.8437C140 34.3932 139.281 37.3919 137.844 39.8398C136.407 42.2469 134.457 44.0421 131.993 45.2252C129.57 46.4084 126.84 47 123.801 47C120.763 47 118.011 46.4084 115.548 45.2252C113.125 44.0421 111.195 42.2469 109.758 39.8398C108.362 37.3919 107.664 34.3932 107.664 30.8437V3.91666H113.269Z" fill="#70C0ED"/>
</svg>
